<svg preserveAspectRatio="none" overflow="visible" style="display: block;" width="13.5003" height="13.3003" viewBox="0 0 13.5003 13.3003" fill="none" xmlns="http://www.w3.org/2000/svg">
<g id="Group">
<path id="Vector" d="M5.25026 6.15C6.6862 6.15 7.85026 4.98594 7.85026 3.55C7.85026 2.11406 6.6862 0.95 5.25026 0.95C3.81431 0.95 2.65026 2.11406 2.65026 3.55C2.65026 4.98594 3.81431 6.15 5.25026 6.15Z" stroke="#2C8C8A" stroke-width="1.9" stroke-linecap="round" stroke-linejoin="round"/>
<path id="Vector_2" d="M0.950255 12.35C1.65026 10.15 3.05026 9.05 5.25026 9.05C6.45026 9.05 7.45026 9.35 8.25026 9.95" stroke="#2C8C8A" stroke-width="1.9" stroke-linecap="round" stroke-linejoin="round"/>
<path id="Vector_3" d="M10.3503 5.45L11.0503 6.85L12.5503 7.05L11.4503 8.15L11.7503 9.65L10.3503 8.95L8.95026 9.65L9.25026 8.15L8.15025 7.05L9.65025 6.85L10.3503 5.45Z" stroke="#2C8C8A" stroke-width="1.9" stroke-linecap="round" stroke-linejoin="round"/>
</g>
</svg>
